<svg id="Layer_1" data-name="Layer 1" xmlns="http://www.w3.org/2000/svg" viewBox="0 0 122.88 122.88">
    <defs>
      <style>
        .cls-1{fill:#fbd433;}
        .cls-1,.cls-2{fill-rule:evenodd;}
        .cls-2{fill:#141518;}
      </style>
    </defs>
    <title>neutral face</title>
    <path class="cls-1" d="M45.54,2.11A61.42,61.42,0,1,1,2.11,77.34,61.42,61.42,0,0,1,45.54,2.11Z"/>
    <path class="cls-2" d="M45.78,32.27c4.3,0,7.79,5,7.79,11.27s-3.49,11.27-7.79,11.27S38,49.77,38,43.54s3.48-11.27,7.78-11.27Z"/>
    <path class="cls-2" d="M77.1,32.27c4.3,0,7.78,5,7.78,11.27S81.4,54.81,77.1,54.81s-7.79-5-7.79-11.27S72.8,32.27,77.1,32.27Z"/>
    <line x1="40" y1="80" x2="83" y2="80" stroke="#141518" stroke-width="4"/>
  </svg>
  